<svg xmlns="http://www.w3.org/2000/svg" id="b799fbe1-7cb7-4635-8884-b814a9e7e215" width="640.657" height="577.179" data-name="Layer 1" viewBox="0 0 640.657 577.179"><path fill="#f2f2f2" d="M438.404,307.82132c-11.01605-32.92966-45.0348-51.23148-67.41427-43.7448s-38.5377,42.57432-27.52165,75.504c10.19672,30.48049,41.09425,48.07684,62.34943,44.93672a2.4111,2.4111,0,0,0-.29727.86443l-.64994,5.42078a2.44167,2.44167,0,0,0,3.24841,2.589l10.94888-3.92591a2.44172,2.44172,0,0,0,.8633-4.06338l-3.94671-3.77257a2.41653,2.41653,0,0,0-.46175-.33188C434.48011,371.08126,448.62292,338.36807,438.404,307.82132Z" transform="translate(-279.67138 -161.41057)"/><path fill="#fff" d="M398.52421,283.59439a40.17042,40.17042,0,0,1,18.17735,52.25234c-.9474,2.15673,2.53662,3.29094,3.4778,1.1483A43.92349,43.92349,0,0,0,400.556,280.54609C398.48974,279.45115,396.44264,282.49133,398.52421,283.59439Z" transform="translate(-279.67138 -161.41057)"/><path fill="#f2f2f2" d="M884.404,259.82132c-11.016-32.92966-45.0348-51.23148-67.41427-43.7448s-38.5377,42.57432-27.52165,75.504c10.19672,30.48049,41.09425,48.07684,62.34943,44.93672a2.4111,2.4111,0,0,0-.29727.86443l-.64994,5.42078a2.44167,2.44167,0,0,0,3.24841,2.589l10.94888-3.92591a2.44172,2.44172,0,0,0,.8633-4.06338l-3.94671-3.77257a2.41653,2.41653,0,0,0-.46175-.33188C880.48011,323.08126,894.62292,290.36807,884.404,259.82132Z" transform="translate(-279.67138 -161.41057)"/><path fill="#fff" d="M844.52421,235.59439a40.17042,40.17042,0,0,1,18.17735,52.25234c-.9474,2.15673,2.53662,3.29094,3.4778,1.1483A43.92349,43.92349,0,0,0,846.556,232.54609C844.48974,231.45115,842.44264,234.49133,844.52421,235.59439Z" transform="translate(-279.67138 -161.41057)"/><path fill="#f2f2f2" d="M625.404,206.82132c-11.016-32.92966-45.0348-51.23148-67.41427-43.7448s-38.5377,42.57432-27.52165,75.504c10.19672,30.48049,41.09425,48.07684,62.34943,44.93672a2.4111,2.4111,0,0,0-.29727.86443l-.64994,5.42078a2.44167,2.44167,0,0,0,3.24841,2.589l10.94888-3.92591a2.44172,2.44172,0,0,0,.8633-4.06338l-3.94671-3.77257a2.41653,2.41653,0,0,0-.46175-.33188C621.48011,270.08126,635.62292,237.36807,625.404,206.82132Z" transform="translate(-279.67138 -161.41057)"/><path fill="#fff" d="M585.52421,182.59439a40.17042,40.17042,0,0,1,18.17735,52.25234c-.9474,2.15673,2.53662,3.29094,3.4778,1.1483A43.92349,43.92349,0,0,0,587.556,179.54609C585.48974,178.45115,583.44264,181.49133,585.52421,182.59439Z" transform="translate(-279.67138 -161.41057)"/><circle cx="290.482" cy="201.238" r="2.624" fill="#ccc"/><circle cx="284.889" cy="303.957" r="5.185" fill="#ccc"/><circle cx="198.093" cy="286.182" r="2.996" fill="#ccc"/><circle cx="243.606" cy="236.88" r="3.244" fill="#ccc"/><circle cx="403.25" cy="427.447" r="2.624" fill="#ccc"/><circle cx="317.301" cy="370.922" r="5.185" fill="#ccc"/><circle cx="376.339" cy="304.862" r="2.996" fill="#ccc"/><circle cx="396.04" cy="369.002" r="3.244" fill="#ccc"/><ellipse cx="836.635" cy="684.242" fill="#2f2e41" rx="6.76" ry="21.534" transform="translate(-523.77203 535.2876) rotate(-39.93837)"/><circle cx="511.156" cy="515.353" r="43.067" fill="#2f2e41"/><rect width="13.084" height="23.442" x="516.301" y="549.153" fill="#2f2e41"/><rect width="13.084" height="23.442" x="490.134" y="549.153" fill="#2f2e41"/><ellipse cx="518.482" cy="572.867" fill="#2f2e41" rx="10.903" ry="4.089"/><ellipse cx="492.315" cy="572.322" fill="#2f2e41" rx="10.903" ry="4.089"/><path fill="#e6e6e6" d="M777.30491,622.62674c3.84558-15.487,20.82056-24.60077,37.91474-20.35617s27.83429,20.2403,23.9887,35.7273-16.60394,15.537-33.69812,11.29235S773.45933,638.11377,777.30491,622.62674Z" transform="translate(-279.67138 -161.41057)"/><ellipse cx="742.32" cy="656.78" fill="#2f2e41" rx="6.76" ry="21.534" transform="translate(-448.87657 884.62646) rotate(-64.62574)"/><circle cx="504.718" cy="506.266" r="14.359" fill="#fff"/><circle cx="498.816" cy="501.119" r="4.786" fill="#3f3d56"/><path fill="#fff" d="M793.39653,697.59149a9.57244,9.57244,0,0,1-18.83533,3.42884h0l-.00336-.0185c-.94177-5.20215,3.08039-7.043,8.28253-7.98474S792.45481,692.38941,793.39653,697.59149Z" transform="translate(-279.67138 -161.41057)"/><ellipse cx="430.438" cy="644.241" fill="#2f2e41" rx="21.534" ry="6.76" transform="translate(-604.69403 654.88722) rotate(-69.08217)"/><circle cx="110.959" cy="515.353" r="43.067" fill="#2f2e41"/><rect width="13.084" height="23.442" x="91.334" y="549.153" fill="#2f2e41"/><rect width="13.084" height="23.442" x="117.501" y="549.153" fill="#2f2e41"/><ellipse cx="102.237" cy="572.867" fill="#2f2e41" rx="10.903" ry="4.089"/><ellipse cx="128.404" cy="572.322" fill="#2f2e41" rx="10.903" ry="4.089"/><circle cx="112.049" cy="504.45" r="14.719" fill="#fff"/><circle cx="112.049" cy="504.45" r="4.906" fill="#3f3d56"/><path fill="#e6e6e6" d="M348.85377,636.7121c-3.47748-15.57379,7.63867-31.31043,24.82861-35.1488s33.94422,5.67511,37.4217,21.24884-7.91492,21.31762-25.10486,25.156S352.33125,652.286,348.85377,636.7121Z" transform="translate(-279.67138 -161.41057)"/><ellipse cx="342.122" cy="656.78" fill="#2f2e41" rx="6.76" ry="21.534" transform="translate(-677.57762 523.03713) rotate(-64.62574)"/><path fill="#fff" d="M369.476,692.30048c0,4.21515,10.85328,12.53857,22.89658,12.53857s23.33514-11.867,23.33514-16.08209-11.29193.81775-23.33514.81775S369.476,688.08533,369.476,692.30048Z" transform="translate(-279.67138 -161.41057)"/><circle cx="316.678" cy="474.353" r="43.067" fill="#2f2e41"/><rect width="13.084" height="23.442" x="297.053" y="508.153" fill="#2f2e41"/><rect width="13.084" height="23.442" x="323.22" y="508.153" fill="#2f2e41"/><ellipse cx="307.956" cy="531.867" fill="#2f2e41" rx="10.903" ry="4.089"/><ellipse cx="334.123" cy="531.322" fill="#2f2e41" rx="10.903" ry="4.089"/><path fill="#63ff80" d="M554.573,595.71222c-3.47747-15.57379,7.63866-31.31042,24.82866-35.1488s33.94422,5.67511,37.4217,21.2489-7.91492,21.31769-25.10486,25.156S558.05049,611.286,554.573,595.71222Z" transform="translate(-279.67138 -161.41057)"/><ellipse cx="637.453" cy="611.642" fill="#2f2e41" rx="23.892" ry="7.501" transform="translate(-525.45495 468.82357) rotate(-45.0221)"/><ellipse cx="544.748" cy="614.642" fill="#2f2e41" rx="7.501" ry="23.892" transform="translate(-554.71702 403.49289) rotate(-44.9779)"/><path fill="#ff6584" d="M858.1781,362.43165c-1.4297-44.15967-31.675-79.01642-67.55466-77.8548-79.853,2.36609-81.80308,148.80118-4.70743,159.32l-1.63226,12.97539,23.81077-.77089-2.46814-12.84263C836.64005,436.4039,859.47429,402.46761,858.1781,362.43165Z" transform="translate(-279.67138 -161.41057)"/><path fill="#fff" d="M750.91418,386.91539l-8.99528.29122a146.49353,146.49353,0,0,1-1.65029-50.97329l8.99528-.29123Q744.28032,362.56747,750.91418,386.91539Z" transform="translate(-279.67138 -161.41057)"/><rect width="27" height="6" x="782.366" y="443.492" fill="#3f3d56" transform="translate(-293.7025 -135.42359) rotate(-1.85434)"/><polygon fill="#3f3d56" points="451.208 511.273 448.491 510.001 515.303 283.429 518.02 284.702 451.208 511.273"/><path fill="#63ff80" d="M913.47588,399.77386c16.3163-41.05969,2.49878-85.09205-30.86214-98.349-74.15988-29.70541-134.40019,103.77921-67.9117,144.19784l-6.676,11.2453,22.13927,8.7977,2.8634-12.76032C864.20072,459,898.68322,436.99934,913.47588,399.77386Z" transform="translate(-279.67138 -161.41057)"/><path fill="#fff" d="M805.35487,379.40605l-8.36382-3.32362a146.49359,146.49359,0,0,1,18.83383-47.395l8.36382,3.32362Q808.99136,354.434,805.35487,379.40605Z" transform="translate(-279.67138 -161.41057)"/><rect width="6" height="27" x="819.789" y="438.474" fill="#3f3d56" transform="translate(-180.75644 888.28233) rotate(-68.32812)"/><polygon fill="#3f3d56" points="450.68 505.309 448.073 503.825 541.351 290.957 543.958 292.44 450.68 505.309"/><path fill="#63ff80" d="M406.46357,365.28486c-17.653-40.503-58.64132-61.70977-91.54993-47.36676-73.32174,31.71782-21.00088,168.50073,54.522,149.77438l3.28,12.65965,21.8391-9.51844-7.04085-11.02049C413.79663,441.97911,422.46809,402.00562,406.46357,365.28486Z" transform="translate(-279.67138 -161.41057)"/><path fill="#fff" d="M315.84888,427.6866l-8.25042,3.5959a146.49372,146.49372,0,0,1-20.37675-46.75242l8.25043-3.59589Q300.68422,407.51577,315.84888,427.6866Z" transform="translate(-279.67138 -161.41057)"/><rect width="27" height="6" x="366.14" y="463.426" fill="#3f3d56" transform="translate(-434.41032 29.11894) rotate(-23.54967)"/><path fill="#3f3d56" d="M448.08285,673.26319h0a1.49991,1.49991,0,0,1-1.81676-1.09466L381.05867,465.5523l2.91162-.722,65.20734,206.61591A1.49991,1.49991,0,0,1,448.08285,673.26319Z" transform="translate(-279.67138 -161.41057)"/><path fill="#ccc" d="M465.51017,738.58943h-157a1,1,0,0,1,0-2h157a1,1,0,0,1,0,2Z" transform="translate(-279.67138 -161.41057)"/><path fill="#ccc" d="M864.51017,738.58943h-157a1,1,0,0,1,0-2h157a1,1,0,0,1,0,2Z" transform="translate(-279.67138 -161.41057)"/><path fill="#ccc" d="M677.51017,697.58943h-157a1,1,0,0,1,0-2h157a1,1,0,0,1,0,2Z" transform="translate(-279.67138 -161.41057)"/><circle cx="314.866" cy="468.25" r="14.719" fill="#fff"/><circle cx="314.866" cy="468.25" r="4.906" fill="#3f3d56"/><path fill="#fff" d="M606.22226,656.88283a9.57244,9.57244,0,0,1-18.83533,3.42884h0l-.00335-.0185c-.94178-5.20215,3.08038-7.043,8.28253-7.98474S605.28055,651.68075,606.22226,656.88283Z" transform="translate(-279.67138 -161.41057)"/></svg>